<svg width="24" height="24" viewBox="0 0 24 24" fill="none" xmlns="http://www.w3.org/2000/svg">
<path d="M23.3529 10.4388L23.3513 10.4372L13.5612 0.647484C13.1439 0.229922 12.589 0 11.9989 0C11.4088 0 10.854 0.229781 10.4365 0.647297L0.651482 10.432C0.648201 10.4353 0.64492 10.4388 0.641639 10.4421C-0.21533 11.304 -0.21383 12.7023 0.645857 13.562C1.03858 13.955 1.55734 14.1825 2.11197 14.2064C2.13447 14.2086 2.1572 14.2096 2.18008 14.2096H2.57026V21.4143C2.57026 22.84 3.73023 24 5.15626 24H8.98642C9.37464 24 9.68954 23.6852 9.68954 23.2969V17.6484C9.68954 16.9979 10.2188 16.4687 10.8693 16.4687H13.1285C13.7791 16.4687 14.3082 16.9979 14.3082 17.6484V23.2969C14.3082 23.6852 14.623 24 15.0114 24H18.8416C20.2676 24 21.4276 22.84 21.4276 21.4144V14.2097H21.7894C22.3794 14.2097 22.9342 13.9799 23.3518 13.5624C24.2125 12.7013 24.2128 11.3005 23.3529 10.4388Z" fill="white"/>
</svg>
