<svg width="16" height="17" viewBox="0 0 16 17" fill="none" xmlns="http://www.w3.org/2000/svg">
<g clip-path="url(#clip0_1_25)">
<path d="M7.99811 0.825714C5.20334 0.825714 2.87238 3.077 2.87238 5.95145C2.87238 7.045 3.20098 8.02013 3.83163 8.93388L7.60585 14.8232C7.78895 15.1095 8.20764 15.1089 8.39037 14.8232L12.181 8.91384C12.798 8.0415 13.1238 7.0172 13.1238 5.95145C13.1238 3.12512 10.8244 0.825714 7.99811 0.825714ZM7.99811 8.28133C6.71347 8.28133 5.66823 7.23608 5.66823 5.95145C5.66823 4.66681 6.71347 3.62157 7.99811 3.62157C9.28274 3.62157 10.328 4.66681 10.328 5.95145C10.328 7.23608 9.28274 8.28133 7.99811 8.28133Z" fill="url(#paint0_linear_1_25)"/>
<path d="M11.6409 11.5337L9.29456 15.2021C8.6872 16.149 7.30565 16.1459 6.70122 15.203L4.35102 11.5347C2.28321 12.0127 1.00848 12.8886 1.00848 13.9352C1.00848 15.7513 4.60979 16.731 7.99812 16.731C11.3864 16.731 14.9878 15.7513 14.9878 13.9352C14.9878 12.8878 13.7113 12.0115 11.6409 11.5337Z" fill="url(#paint1_linear_1_25)"/>
</g>
<defs>
<linearGradient id="paint0_linear_1_25" x1="7.99811" y1="0.825714" x2="7.99811" y2="15.0377" gradientUnits="userSpaceOnUse">
<stop stop-color="#FC8F8F"/>
<stop offset="1" stop-color="#FF5757"/>
</linearGradient>
<linearGradient id="paint1_linear_1_25" x1="7.99812" y1="11.5337" x2="7.99812" y2="16.731" gradientUnits="userSpaceOnUse">
<stop stop-color="#FC8F8F"/>
<stop offset="1" stop-color="#FF5757"/>
</linearGradient>
<clipPath id="clip0_1_25">
<rect width="15.9053" height="15.9053" fill="white" transform="translate(0.0454712 0.825714)"/>
</clipPath>
</defs>
</svg>
