<svg width="23" height="20" viewBox="0 0 23 20" fill="none" xmlns="http://www.w3.org/2000/svg">
<path d="M13.8795 3.43274C14.943 4.12172 15.6887 5.28762 15.8244 6.64096C16.2704 6.85772 16.757 6.97033 17.2499 6.97077C19.113 6.97077 20.6231 5.41041 20.6231 3.48553C20.6231 1.56036 19.113 0 17.2499 0C15.4045 0.000593181 13.9076 1.53308 13.8795 3.43274ZM11.6696 10.5693C13.5328 10.5693 15.0429 9.00865 15.0429 7.08377C15.0429 5.1589 13.5325 3.59854 11.6696 3.59854C9.80679 3.59854 8.29585 5.15919 8.29585 7.08407C8.29585 9.00894 9.80679 10.5693 11.6696 10.5693ZM13.1005 10.8069H10.2382C7.85668 10.8069 5.91921 12.8092 5.91921 15.27V18.8869L5.9281 18.9435L6.16921 19.0215C8.44195 19.7553 10.4164 20 12.0416 20C15.2159 20 17.0558 19.0648 17.1692 19.0052L17.3945 18.8875H17.4186V15.27C17.4195 12.8092 15.482 10.8069 13.1005 10.8069ZM18.6813 7.20864H15.8411C15.8122 8.34184 15.3511 9.41731 14.5581 10.2006C16.6749 10.8511 18.2238 12.8795 18.2238 15.2753V16.3899C21.0281 16.2837 22.6441 15.4625 22.7506 15.4073L22.9759 15.2892H23V11.6711C23 9.21062 21.0625 7.20864 18.6813 7.20864ZM5.75072 6.97136C6.41061 6.97136 7.02457 6.77235 7.54468 6.43335C7.70787 5.34263 8.26946 4.35803 9.11389 3.68217C9.11734 3.61692 9.12336 3.55227 9.12336 3.48642C9.12336 1.56125 7.61299 0.000889708 5.75072 0.000889708C3.8873 0.000889708 2.3775 1.56125 2.3775 3.48642C2.3775 5.4107 3.8873 6.97136 5.75072 6.97136ZM8.78007 10.2006C7.99148 9.42105 7.53098 8.35244 7.49789 7.22525C7.39255 7.21724 7.28836 7.20864 7.18101 7.20864H4.31899C1.93748 7.20864 0 9.21062 0 11.6711V15.2887L0.00889804 15.3444L0.250006 15.423C2.07324 16.0112 3.70044 16.2822 5.11379 16.3677V15.2753C5.11436 12.8795 6.66262 10.8517 8.78007 10.2006Z" fill="white"/>
</svg>
