<svg width="24" height="27" viewBox="0 0 24 27" fill="none" xmlns="http://www.w3.org/2000/svg">
<path d="M11.9565 19.0804C9.70087 19.0804 8.24512 19.8221 8.24512 20.3158C8.24512 20.812 9.6756 21.5543 11.9565 21.5543C14.2374 21.5543 15.6653 20.812 15.6653 20.3158C15.6653 19.8221 14.2096 19.0804 11.9565 19.0804Z" fill="white"/>
<path d="M8.24512 23.8079V24.8817C8.24512 25.3754 9.6756 26.1171 11.9565 26.1171C14.2374 26.1171 15.6653 25.3754 15.6653 24.8817V23.8079C14.7866 24.3577 13.3592 24.6589 11.9565 24.6589C10.5543 24.6589 9.12635 24.3855 8.24512 23.8079Z" fill="white"/>
<path d="M8.24512 21.5543V22.6255C8.24512 23.1192 9.6756 23.8635 11.9565 23.8635C14.2374 23.8635 15.6653 23.1192 15.6653 22.6255V21.5543C14.7866 22.1036 13.3592 22.4072 11.9565 22.4072C10.5543 22.4072 9.12635 22.1036 8.24512 21.5543Z" fill="white"/>
<path d="M0.02771 19.2727V20.3439C0.02771 20.8381 1.45819 21.5799 3.73909 21.5799C5.99219 21.5799 7.44794 20.8381 7.44794 20.3439V19.2727C6.56974 19.8225 5.13925 20.1236 3.73909 20.1236C2.3369 20.0959 0.906415 19.8225 0.02771 19.2727Z" fill="white"/>
<path d="M0.02771 21.5543V22.6255C0.02771 23.1192 1.45819 23.8635 3.73909 23.8635C5.99219 23.8635 7.44794 23.1192 7.44794 22.6255V21.5543C6.56974 22.1036 5.13925 22.4072 3.73909 22.4072C2.3369 22.3774 0.906415 22.1036 0.02771 21.5543Z" fill="white"/>
<path d="M0.02771 23.8079V24.8817C0.02771 25.3754 1.45819 26.1171 3.73909 26.1171C5.99219 26.1171 7.44794 25.3754 7.44794 24.8817V23.8079C6.56974 24.3577 5.13925 24.6589 3.73909 24.6589C2.3369 24.6589 0.906415 24.3855 0.02771 23.8079Z" fill="white"/>
<path d="M0.02771 16.9887V18.062C0.02771 18.5581 1.45819 19.2999 3.73909 19.2999C5.99219 19.2999 7.44794 18.5581 7.44794 18.062V16.9887C6.56974 17.538 5.13925 17.8416 3.73909 17.8416C2.3369 17.8139 0.906415 17.538 0.02771 16.9887Z" fill="white"/>
<path d="M3.71138 14.5169C1.45828 14.5169 0 15.2587 0 15.7529C0 16.2465 1.43048 16.9888 3.71138 16.9888C5.96448 16.9888 7.42023 16.2465 7.42023 15.7529C7.42023 15.2587 5.99227 14.5169 3.71138 14.5169Z" fill="white"/>
<path d="M17.2049 8.96137C17.2049 9.07304 17.1241 9.15389 17.0129 9.15389H15.7769C15.9417 9.40199 16.0786 9.67788 16.1342 9.97954H17.0129C17.1241 9.97954 17.2049 10.0629 17.2049 10.1721V10.9138C17.2049 11.025 17.1241 11.1063 17.0129 11.1063H16.1342C15.8861 12.2331 14.871 13.0588 13.6886 13.0588H13.5238L15.9973 15.5605C16.0508 15.6161 16.0786 15.6974 16.025 15.753C15.9973 15.8339 15.9417 15.8617 15.8583 15.8617H14.7315C14.6784 15.8617 14.6229 15.8339 14.5951 15.8086L12.1494 13.3069C12.1217 13.2791 12.0939 13.223 12.0939 13.1674V12.0406C12.0939 11.932 12.1772 11.8481 12.2859 11.8481H13.7164C14.2378 11.8481 14.7037 11.547 14.924 11.0785H12.3142C12.205 11.0785 12.1217 10.9972 12.1217 10.886V10.1443C12.1217 10.0351 12.205 9.95175 12.3142 9.95175H14.924C14.7037 9.48536 14.2378 9.18168 13.7164 9.18168H12.2859C12.1772 9.18168 12.0939 9.10083 12.0939 8.98916V8.19181C12.0939 8.08267 12.1772 7.99929 12.2859 7.99929H17.0129C17.1241 7.99929 17.2049 8.08267 17.2049 8.19181V8.96137ZM23.225 13.9931C22.2629 10.2832 20.4757 5.6901 17.3444 3.95796L19.3772 1.98024C20.1189 1.26374 19.5975 0 18.5798 0H10.719C9.67604 0 9.15205 1.26374 9.92161 1.98024L11.9291 3.95796C8.79531 5.6901 7.00809 10.2832 6.04803 13.9653C7.28398 14.2968 8.21776 14.8996 8.21776 15.753V19.1082C9.09899 18.5584 10.527 18.2547 11.9291 18.2547C14.1267 18.2547 16.4631 18.9687 16.4631 20.3158V20.5917C17.3444 20.5639 18.1417 20.4831 18.8557 20.3997C21.9617 20.0424 23.9945 17.0168 23.225 13.9931Z" fill="white"/>
</svg>
