<svg width="26" height="26" viewBox="0 0 26 26" fill="none" xmlns="http://www.w3.org/2000/svg">
<path d="M13.7632 0C12.0827 0 10.6653 1.41725 10.6653 3.09765C10.6653 4.77805 12.0827 6.1953 13.7632 6.1953C15.4438 6.1953 16.8104 4.77805 16.8104 3.09765C16.8104 1.41725 15.4438 0 13.7632 0ZM17.1452 6.1953C16.308 7.12352 15.1089 7.71873 13.7632 7.71873C12.4176 7.71873 11.1677 7.12352 10.3305 6.1953C9.59959 7.00571 9.14171 8.06739 9.14171 9.24216V10.0039C9.14171 10.4249 9.48243 10.7656 9.90349 10.7656H17.5722C17.9932 10.7656 18.334 10.4249 18.334 10.0039V9.24216C18.334 8.06739 17.8761 7.00571 17.1452 6.1953ZM7.35998 23.3798L3.47785 15.5974C3.103 14.8459 2.19068 14.5394 1.43819 14.9122L0.423534 15.4148C0.0457371 15.6021 -0.107992 16.0612 0.0805763 16.4383L4.65131 25.5789C4.83927 25.9559 5.2965 26.1059 5.67125 25.9211L6.67285 25.4249C7.42829 25.0507 7.7362 24.1342 7.35998 23.3798ZM25.378 12.5785C24.7533 12.1215 23.8849 12.2129 23.3669 12.7765L19.2025 17.8953C18.913 18.2 18.3645 18.3828 18.075 18.3828H14.525C14.0984 18.3828 13.7632 18.0477 13.7632 17.621C13.7632 17.1944 14.0984 16.8593 14.525 16.8593H17.5722C18.4101 16.8593 19.0958 16.1738 19.0958 15.3359C19.0958 14.498 18.4101 13.8125 17.5722 13.8125H13.5804C13.2007 13.8125 13.0114 13.5717 12.712 13.3097C11.5333 12.2491 9.76896 11.7382 7.98282 12.1521C6.99107 12.382 6.32227 12.7826 5.64397 13.3197L5.62137 13.3014L4.51952 14.271L8.84974 22.9531H17.5722C19.0043 22.9531 20.3756 22.2675 21.2288 21.1249L25.6979 14.7265C26.2007 14.0562 26.0636 13.0813 25.378 12.5785Z" fill="white"/>
</svg>
