<svg width="30" height="30" viewBox="0 0 30 30" fill="none" xmlns="http://www.w3.org/2000/svg">
<path d="M17.2491 17.1422C16.4513 17.94 15.3928 18.3788 14.2641 18.3788C13.1353 18.3788 12.0769 17.94 11.2791 17.1422C10.4813 16.3453 10.0434 15.2859 10.0434 14.1581C10.0434 13.0303 10.4822 11.9709 11.2791 11.1731C12.0769 10.3753 13.1353 9.93656 14.2641 9.93656C15.3928 9.93656 16.4513 10.3753 17.2491 11.1731C18.0469 11.97 18.4847 13.0303 18.4847 14.1581C18.4847 15.2859 18.0469 16.3453 17.2491 17.1422ZM30 15C30 23.2706 23.2706 30 15 30C6.72938 30 0 23.2706 0 15C0 6.72938 6.72938 0 15 0C23.2706 0 30 6.72844 30 15ZM21.6741 20.22L19.1934 17.7328C19.9527 16.6954 20.3613 15.4428 20.3597 14.1572C20.3597 12.5287 19.7259 10.9978 18.5747 9.84656C17.4234 8.69531 15.8934 8.06063 14.2641 8.06063C12.6347 8.06063 11.1047 8.69531 9.95344 9.84656C8.80219 10.9978 8.16844 12.5287 8.16844 14.1572C8.16844 15.7856 8.80313 17.3166 9.95344 18.4669C10.5181 19.0348 11.1899 19.4852 11.9298 19.7917C12.6698 20.0983 13.4631 20.255 14.2641 20.2528C15.5636 20.254 16.8289 19.8365 17.8725 19.0622L20.3466 21.5428C20.4335 21.6304 20.5369 21.6998 20.6508 21.7471C20.7648 21.7944 20.8869 21.8187 21.0103 21.8184C21.1954 21.8182 21.3763 21.7632 21.5302 21.6604C21.684 21.5575 21.804 21.4114 21.875 21.2405C21.946 21.0695 21.9648 20.8814 21.929 20.6998C21.8933 20.5182 21.8045 20.3513 21.6741 20.22Z" fill="url(#paint0_linear_1_72)"/>
<defs>
<linearGradient id="paint0_linear_1_72" x1="2.49023" y1="7.38281" x2="45.2344" y2="31.8457" gradientUnits="userSpaceOnUse">
<stop stop-color="#FF5757"/>
<stop offset="1" stop-color="#FF5757" stop-opacity="0"/>
</linearGradient>
</defs>
</svg>
