<svg width="41" height="41" viewBox="0 0 41 41" fill="none" xmlns="http://www.w3.org/2000/svg">
<path d="M35.5334 41H38.2667C38.9916 41 39.6869 40.712 40.1995 40.1994C40.7121 39.6868 41 38.9916 41 38.2667V2.73333C41 2.00841 40.7121 1.31317 40.1995 0.800575C39.6869 0.287975 38.9916 0 38.2667 0H35.5334V41Z" fill="#36393F"/>
<path d="M16.4 30.0667V38.2667C16.4 38.9916 16.688 39.6868 17.2006 40.1994C17.7132 40.712 18.4084 41 19.1334 41H35.5334C36.2583 41 36.9535 40.712 37.4661 40.1994C37.9787 39.6868 38.2667 38.9916 38.2667 38.2667V2.73333C38.2667 2.00841 37.9787 1.31317 37.4661 0.800575C36.9535 0.287975 36.2583 0 35.5334 0H19.1334C18.4084 0 17.7132 0.287975 17.2006 0.800575C16.688 1.31317 16.4 2.00841 16.4 2.73333V30.0667Z" fill="#2B2E33"/>
<path d="M35.5333 0.683319H19.1333C18.0011 0.683319 17.0833 1.60114 17.0833 2.73332V38.2667C17.0833 39.3988 18.0011 40.3167 19.1333 40.3167H35.5333C36.6655 40.3167 37.5833 39.3988 37.5833 38.2667V2.73332C37.5833 1.60114 36.6655 0.683319 35.5333 0.683319Z" fill="#EAEBEF"/>
<path d="M35.5333 0.683319H21.935C21.3731 0.683319 20.8343 0.9065 20.4371 1.30376C20.0398 1.70103 19.8166 2.23984 19.8166 2.80165V29.6956C19.8168 31.425 20.5039 33.0836 21.7268 34.3065C22.9497 35.5294 24.6082 36.2165 26.3377 36.2167H34.2643C34.7003 36.2166 35.1319 36.1306 35.5347 35.9637C35.9374 35.7968 36.3033 35.5522 36.6115 35.2439C36.9197 34.9356 37.1641 34.5695 37.3309 34.1668C37.4976 33.764 37.5834 33.3323 37.5833 32.8963V2.73332C37.5833 2.18963 37.3673 1.6682 36.9829 1.28375C36.5984 0.899301 36.077 0.683319 35.5333 0.683319Z" fill="#F6F8FF"/>
<path d="M21.8667 0L22.55 2.73333H32.1167L32.8 0H21.8667Z" fill="#2B2E33"/>
<path d="M22.8992 27.3333H32.1167C32.2979 27.3333 32.4717 27.4053 32.5999 27.5335C32.728 27.6616 32.8 27.8354 32.8 28.0167V30.75C32.8 30.9312 32.728 31.1051 32.5999 31.2332C32.4717 31.3614 32.2979 31.4333 32.1167 31.4333H24.5317L22.8992 27.3333Z" fill="#FF5757"/>
<path d="M16.4 24.6L13.489 26.3555C13.3352 26.4451 13.2076 26.5734 13.1188 26.7278C13.0301 26.8821 12.9834 27.0569 12.9833 27.2349V32.3135C12.9837 32.5377 13.0481 32.7571 13.169 32.946C13.2899 33.1348 13.4622 33.2852 13.6657 33.3794C13.8692 33.4736 14.0953 33.5077 14.3175 33.4777C14.5397 33.4477 14.7487 33.3548 14.9199 33.21L21.1997 27.8957C21.6305 27.5321 22.1762 27.3329 22.74 27.3333H22.8992C23.2123 27.3333 23.5223 27.395 23.8116 27.5148C24.1008 27.6346 24.3636 27.8103 24.585 28.0316C24.8064 28.253 24.982 28.5159 25.1019 28.8051C25.2217 29.0944 25.2833 29.4044 25.2833 29.7175C25.2836 30.0434 25.217 30.3658 25.0877 30.6649C24.9584 30.9641 24.7692 31.2335 24.5317 31.4566L15.6142 39.8151C14.8018 40.5763 13.7303 40.9999 12.6171 41H0V31.4333L2.16412 31.0008C2.96699 30.8388 3.67665 30.3738 4.14578 29.7025L7.35335 25.12C7.90908 24.3281 8.64403 23.6786 9.49833 23.2245L13.7815 20.2178C14.1516 19.9573 14.593 19.8172 15.0456 19.8167H16.4V24.6Z" fill="#F4C8AD"/>
<path d="M25.2833 29.7175C25.2823 29.131 25.0643 28.5656 24.6713 28.1302C24.2783 27.6948 23.7381 27.4202 23.1547 27.3593L23.2231 27.8534C23.3173 28.5259 23.2454 29.2114 23.0136 29.8497C22.7818 30.4881 22.3972 31.0599 21.8933 31.5153L15.2752 37.4952C14.3346 38.3444 13.1122 38.8141 11.8449 38.8133H7.97723C7.39784 38.8134 6.8241 38.6994 6.28878 38.4777C5.75346 38.2561 5.26705 37.9311 4.85732 37.5214C4.44759 37.1118 4.12257 36.6254 3.90083 36.0901C3.67908 35.5549 3.56495 34.9811 3.56495 34.4017V30.3175C3.16215 30.6583 2.68065 30.8931 2.16412 31.0008L0 31.4333V41H12.6171C13.7303 40.9999 14.8018 40.5763 15.6142 39.8151L24.5317 31.4566C24.7692 31.2335 24.9584 30.964 25.0877 30.6649C25.217 30.3658 25.2836 30.0433 25.2833 29.7175ZM13.856 23.9542C13.5876 24.1322 13.3674 24.3739 13.2152 24.6577C13.0629 24.9415 12.9833 25.2585 12.9833 25.5806V27.2349C12.9834 27.0569 13.0301 26.8821 13.1188 26.7277C13.2076 26.5734 13.3352 26.4451 13.489 26.3555L16.4 24.6V22.5999L13.856 23.9542Z" fill="#F2B9A1"/>
<path d="M30.4083 27.3333H27.675C26.7315 27.3333 25.9666 28.0982 25.9666 29.0417C25.9666 29.9852 26.7315 30.75 27.675 30.75H30.4083C31.3518 30.75 32.1166 29.9852 32.1166 29.0417C32.1166 28.0982 31.3518 27.3333 30.4083 27.3333Z" fill="#FF5757"/>
<path d="M27.3334 20.5C30.7299 20.5 33.4834 17.7466 33.4834 14.35C33.4834 10.9535 30.7299 8.20001 27.3334 8.20001C23.9368 8.20001 21.1834 10.9535 21.1834 14.35C21.1834 17.7466 23.9368 20.5 27.3334 20.5Z" fill="#EAEBEF"/>
<path d="M27.3334 19.1333C30.7299 19.1333 33.4834 16.3799 33.4834 12.9833C33.4834 9.58679 30.7299 6.83334 27.3334 6.83334C23.9368 6.83334 21.1834 9.58679 21.1834 12.9833C21.1834 16.3799 23.9368 19.1333 27.3334 19.1333Z" fill="#FF5757"/>
<path d="M27.3333 15.7167C30.3525 15.7167 32.8 13.7281 32.8 11.275C32.8 8.82195 30.3525 6.83334 27.3333 6.83334C24.3142 6.83334 21.8667 8.82195 21.8667 11.275C21.8667 13.7281 24.3142 15.7167 27.3333 15.7167Z" fill="#FF5757"/>
<path d="M1.9092 28.8196C1.7841 28.8196 1.66141 28.7852 1.55449 28.7202C1.44758 28.6553 1.36055 28.5622 1.30289 28.4512C1.24523 28.3402 1.21915 28.2155 1.2275 28.0906C1.23585 27.9658 1.2783 27.8457 1.35024 27.7433L2.85699 25.5908C2.9612 25.4424 3.1201 25.3414 3.29874 25.3102C3.47738 25.2789 3.66113 25.3199 3.80955 25.4241C3.95798 25.5283 4.05893 25.6872 4.0902 25.8658C4.12147 26.0445 4.08049 26.2282 3.97629 26.3767L2.47295 28.5292C2.40945 28.6195 2.32499 28.6931 2.22681 28.7437C2.12863 28.7943 2.01965 28.8203 1.9092 28.8196ZM5.11677 24.2371C4.99234 24.2366 4.87041 24.2021 4.76415 24.1373C4.65789 24.0726 4.57133 23.9801 4.5138 23.8697C4.45627 23.7594 4.42997 23.6354 4.43772 23.5112C4.44548 23.387 4.487 23.2673 4.5578 23.165C5.37735 21.9983 6.44586 21.0283 7.6861 20.3251L10.1741 18.5778C10.2474 18.5245 10.3306 18.4863 10.4189 18.4655C10.5071 18.4446 10.5986 18.4416 10.688 18.4564C10.7774 18.4713 10.863 18.5038 10.9397 18.5521C11.0164 18.6003 11.0828 18.6634 11.1349 18.7376C11.1871 18.8117 11.2239 18.8955 11.2433 18.984C11.2628 19.0726 11.2644 19.1641 11.2481 19.2533C11.2318 19.3424 11.198 19.4275 11.1485 19.5034C11.099 19.5794 11.0349 19.6448 10.96 19.6957L8.45144 21.4567L8.41317 21.4826C8.40163 21.49 8.38977 21.4968 8.37764 21.5031C7.30664 22.1066 6.38418 22.942 5.67779 23.9481C5.6144 24.0378 5.53031 24.1109 5.43265 24.1613C5.33498 24.2116 5.22663 24.2376 5.11677 24.2371ZM26.65 16.4C26.4688 16.4 26.295 16.3279 26.1669 16.1998L24.1169 14.1498C23.9924 14.0209 23.9235 13.8483 23.9251 13.6691C23.9266 13.49 23.9985 13.3186 24.1252 13.1919C24.2519 13.0652 24.4233 12.9933 24.6024 12.9917C24.7816 12.9902 24.9542 13.0591 25.0831 13.1835L26.611 14.7115L30.2327 10.4885C30.3526 10.3586 30.5183 10.2803 30.6947 10.27C30.8712 10.2597 31.0448 10.3182 31.1791 10.4332C31.3133 10.5482 31.3978 10.7107 31.4148 10.8867C31.4317 11.0626 31.3798 11.2383 31.27 11.3768L27.17 16.1601C27.1088 16.2315 27.0334 16.2894 26.9488 16.3304C26.8641 16.3713 26.7719 16.3943 26.678 16.3979L26.65 16.4Z" fill="#F6F8FF"/>
<path d="M34.1666 22.55H20.5C20.3187 22.55 20.1449 22.478 20.0168 22.3498C19.8886 22.2217 19.8166 22.0479 19.8166 21.8667C19.8166 21.6854 19.8886 21.5116 20.0168 21.3835C20.1449 21.2553 20.3187 21.1833 20.5 21.1833H34.1666C34.3479 21.1833 34.5217 21.2553 34.6498 21.3835C34.778 21.5116 34.85 21.6854 34.85 21.8667C34.85 22.0479 34.778 22.2217 34.6498 22.3498C34.5217 22.478 34.3479 22.55 34.1666 22.55ZM31.4333 25.2833H23.2333C23.0521 25.2833 22.8782 25.2113 22.7501 25.0832C22.6219 24.955 22.55 24.7812 22.55 24.6C22.55 24.4188 22.6219 24.2449 22.7501 24.1168C22.8782 23.9886 23.0521 23.9167 23.2333 23.9167H31.4333C31.6145 23.9167 31.7883 23.9886 31.9165 24.1168C32.0446 24.2449 32.1166 24.4188 32.1166 24.6C32.1166 24.7812 32.0446 24.955 31.9165 25.0832C31.7883 25.2113 31.6145 25.2833 31.4333 25.2833Z" fill="#FF5757"/>
<path d="M30.0667 23.9167H24.6C24.2226 23.9167 23.9167 24.2226 23.9167 24.6C23.9167 24.9774 24.2226 25.2833 24.6 25.2833H30.0667C30.4441 25.2833 30.75 24.9774 30.75 24.6C30.75 24.2226 30.4441 23.9167 30.0667 23.9167Z" fill="#FF5757"/>
<path d="M32.8 21.1833H21.8667C21.4893 21.1833 21.1834 21.4893 21.1834 21.8667C21.1834 22.244 21.4893 22.55 21.8667 22.55H32.8C33.1774 22.55 33.4834 22.244 33.4834 21.8667C33.4834 21.4893 33.1774 21.1833 32.8 21.1833Z" fill="#FF5757"/>
<path d="M27.3334 10.25C28.4655 10.25 29.3834 9.63812 29.3834 8.88333C29.3834 8.12854 28.4655 7.51666 27.3334 7.51666C26.2012 7.51666 25.2834 8.12854 25.2834 8.88333C25.2834 9.63812 26.2012 10.25 27.3334 10.25Z" fill="#D4F7E3"/>
<path d="M41 4.1C41 3.34521 40.3881 2.73334 39.6333 2.73334C38.8786 2.73334 38.2667 3.34521 38.2667 4.1V36.9C38.2667 37.6548 38.8786 38.2667 39.6333 38.2667C40.3881 38.2667 41 37.6548 41 36.9V4.1Z" fill="#3F4349"/>
</svg>
